<svg aria-hidden="true" style="width:0;height:0;position:absolute;overflow:hidden" xmlns="http://www.w3.org/2000/svg"><defs><symbol id="logo-flame" viewBox="0 0 24 32"><path d="M22.926 15.788c-.331-.788-.709-1.68-1.075-2.782-.962-2.884 2.111-6.03 2.14-6.059L22.27 5.226c-.17.17-4.167 4.234-2.729 8.55.397 1.191.794 2.13 1.142 2.958a11.432 11.432 0 0 1 1.231 5.179 7.593 7.593 0 0 1-5.101 6.444 10.366 10.366 0 0 0-2.56-9.739l-1.271-1.271-.709 1.652c-2.235 5.215-4.895 7.492-6.459 8.441a7.123 7.123 0 0 1-3.379-5.527 11.708 11.708 0 0 1 1.131-4.418 13.805 13.805 0 0 0 1.304-5.321v-2.165c1.064.438 2.435 1.586 2.435 4.599v3.169l2.122-2.354c3.789-4.205 2.998-9.212 1.468-12.549a5.457 5.457 0 0 1 3.714 5.647h2.435c0-6.741-5.574-8.522-8.522-8.522H6.087l1.461 1.947c.167.225 3.484 4.781 1.647 9.359a6.013 6.013 0 0 0-5.543-4.001H2.435v4.87a11.708 11.708 0 0 1-1.131 4.418A13.805 13.805 0 0 0 0 21.913c0 4.685 4.654 9.739 12.174 9.739s12.174-5.055 12.174-9.739a13.853 13.853 0 0 0-1.422-6.125zM8.321 28.64a20.065 20.065 0 0 0 5.316-6.815 7.434 7.434 0 0 1 .313 7.269c-.589.079-1.182.12-1.776.123a12.59 12.59 0 0 1-3.853-.577z"/></symbol><symbol id="icon-search" viewBox="0 0 32 32"><path d="m31.008 27.231-7.58-6.447c-.784-.705-1.622-1.029-2.299-.998a11.954 11.954 0 0 0 2.87-7.787c0-6.627-5.373-12-12-12s-12 5.373-12 12 5.373 12 12 12c2.972 0 5.691-1.081 7.787-2.87-.031.677.293 1.515.998 2.299l6.447 7.58c1.104 1.226 2.907 1.33 4.007.23s.997-2.903-.23-4.007zM12 20a8 8 0 1 1 0-16 8 8 0 0 1 0 16z"/></symbol><symbol id="icon-menu-burger" viewBox="0 0 47 32"><path stroke="#fff" style="stroke:var(--color2,#fff)" stroke-linecap="round" stroke-width="2.909" d="M8.538 5.333h36.553M8.538 24.727h36.553M19.668 15.03h25.423"/></symbol><symbol id="icon-close-button" viewBox="0 0 32 32"><path d="M32 3.223 28.777 0 16 12.777 3.223 0 0 3.223 12.777 16 0 28.777 3.223 32 16 19.223 28.777 32 32 28.777 19.223 16 32 3.223z"/></symbol></defs></svg>