<svg aria-hidden="true" style="position: absolute; width: 0; height: 0; overflow: hidden;" version="1.1" xmlns="http://www.w3.org/2000/svg" xmlns:xlink="http://www.w3.org/1999/xlink">
<defs>
<symbol id="logo-flame" viewBox="0 0 24 32">
<path d="M22.926 15.788c-0.331-0.788-0.709-1.68-1.075-2.782-0.962-2.884 2.111-6.030 2.14-6.059l-1.721-1.721c-0.17 0.17-4.167 4.234-2.729 8.55 0.397 1.191 0.794 2.13 1.142 2.958 0.812 1.605 1.234 3.38 1.231 5.179-0.143 1.45-0.699 2.829-1.604 3.971s-2.118 2.001-3.497 2.473c0.436-1.707 0.429-3.497-0.019-5.201s-1.323-3.266-2.541-4.538l-1.271-1.271-0.709 1.652c-2.235 5.215-4.895 7.492-6.459 8.441-0.96-0.588-1.767-1.396-2.355-2.357s-0.938-2.047-1.024-3.17c0.084-1.533 0.468-3.034 1.131-4.418 0.786-1.669 1.229-3.478 1.304-5.321v-2.165c1.064 0.438 2.435 1.586 2.435 4.599v3.169l2.122-2.354c3.789-4.205 2.998-9.212 1.468-12.549 1.163 0.388 2.162 1.156 2.836 2.18s0.983 2.246 0.878 3.467h2.435c0-6.741-5.574-8.522-8.522-8.522h-2.435l1.461 1.947c0.167 0.225 3.484 4.781 1.647 9.359-0.409-1.151-1.158-2.15-2.148-2.864s-2.174-1.111-3.395-1.137h-1.217v4.87c-0.084 1.533-0.468 3.034-1.131 4.418-0.786 1.669-1.229 3.478-1.304 5.321 0 4.685 4.654 9.739 12.174 9.739s12.174-5.055 12.174-9.739c0.002-2.124-0.485-4.219-1.422-6.125zM8.321 28.64c1.157-0.957 2.199-2.039 3.109-3.221 0.857-1.114 1.598-2.318 2.207-3.594 0.671 1.083 1.052 2.321 1.107 3.594s-0.219 2.539-0.794 3.675c-0.589 0.079-1.182 0.12-1.776 0.123-1.306 0.009-2.606-0.186-3.853-0.577z"></path>
</symbol>
<symbol id="icon-search" viewBox="0 0 32 32">
<path d="M31.008 27.231l-7.58-6.447c-0.784-0.705-1.622-1.029-2.299-0.998 1.789-2.096 2.87-4.815 2.87-7.787 0-6.627-5.373-12-12-12s-12 5.373-12 12 5.373 12 12 12c2.972 0 5.691-1.081 7.787-2.87-0.031 0.677 0.293 1.515 0.998 2.299l6.447 7.58c1.104 1.226 2.907 1.33 4.007 0.23s0.997-2.903-0.23-4.007zM12 20c-4.418 0-8-3.582-8-8s3.582-8 8-8 8 3.582 8 8-3.582 8-8 8z"></path>
</symbol>
<symbol id="icon-menu-burger" viewBox="0 0 47 32">
<path  stroke="#fff" style="stroke: var(--color2, #fff)" stroke-linejoin="miter" stroke-linecap="round" stroke-miterlimit="4" stroke-width="2.9091" d="M8.538 5.333h36.553"></path>
<path  stroke="#fff" style="stroke: var(--color2, #fff)" stroke-linejoin="miter" stroke-linecap="round" stroke-miterlimit="4" stroke-width="2.9091" d="M8.538 24.727h36.553"></path>
<path  stroke="#fff" style="stroke: var(--color2, #fff)" stroke-linejoin="miter" stroke-linecap="round" stroke-miterlimit="4" stroke-width="2.9091" d="M19.668 15.030h25.423"></path>
</symbol>
<symbol id="icon-close-button" viewBox="0 0 32 32">
<path d="M32 3.223l-3.223-3.223-12.777 12.777-12.777-12.777-3.223 3.223 12.777 12.777-12.777 12.777 3.223 3.223 12.777-12.777 12.777 12.777 3.223-3.223-12.777-12.777 12.777-12.777z"></path>
</symbol>
</defs>
</svg>